<svg xmlns="http://www.w3.org/2000/svg" viewBox="0 0 41 41" shape-rendering="crispEdges"><rect width="41" height="41" fill="#fff"/><path d="M4 4h7v1h-7zM14 4h1v1h-1zM20 4h1v1h-1zM22 4h1v1h-1zM24 4h3v1h-3zM28 4h1v1h-1zM30 4h7v1h-7zM4 5h1v1h-1zM10 5h1v1h-1zM15 5h2v1h-2zM19 5h3v1h-3zM25 5h3v1h-3zM30 5h1v1h-1zM36 5h1v1h-1zM4 6h1v1h-1zM6 6h3v1h-3zM10 6h1v1h-1zM13 6h2v1h-2zM16 6h1v1h-1zM18 6h1v1h-1zM20 6h2v1h-2zM23 6h2v1h-2zM26 6h1v1h-1zM30 6h1v1h-1zM32 6h3v1h-3zM36 6h1v1h-1zM4 7h1v1h-1zM6 7h3v1h-3zM10 7h1v1h-1zM15 7h3v1h-3zM21 7h1v1h-1zM23 7h1v1h-1zM28 7h1v1h-1zM30 7h1v1h-1zM32 7h3v1h-3zM36 7h1v1h-1zM4 8h1v1h-1zM6 8h3v1h-3zM10 8h1v1h-1zM14 8h4v1h-4zM20 8h1v1h-1zM23 8h1v1h-1zM28 8h1v1h-1zM30 8h1v1h-1zM32 8h3v1h-3zM36 8h1v1h-1zM4 9h1v1h-1zM10 9h1v1h-1zM12 9h1v1h-1zM14 9h1v1h-1zM16 9h3v1h-3zM24 9h2v1h-2zM27 9h2v1h-2zM30 9h1v1h-1zM36 9h1v1h-1zM4 10h7v1h-7zM12 10h1v1h-1zM14 10h1v1h-1zM16 10h1v1h-1zM18 10h1v1h-1zM20 10h1v1h-1zM22 10h1v1h-1zM24 10h1v1h-1zM26 10h1v1h-1zM28 10h1v1h-1zM30 10h7v1h-7zM14 11h2v1h-2zM23 11h4v1h-4zM28 11h1v1h-1zM4 12h1v1h-1zM7 12h1v1h-1zM9 12h2v1h-2zM12 12h2v1h-2zM15 12h1v1h-1zM17 12h8v1h-8zM26 12h4v1h-4zM31 12h1v1h-1zM5 13h5v1h-5zM13 13h2v1h-2zM16 13h1v1h-1zM18 13h1v1h-1zM20 13h1v1h-1zM25 13h1v1h-1zM27 13h5v1h-5zM33 13h1v1h-1zM5 14h2v1h-2zM8 14h5v1h-5zM14 14h1v1h-1zM16 14h1v1h-1zM21 14h1v1h-1zM24 14h2v1h-2zM28 14h6v1h-6zM36 14h1v1h-1zM6 15h4v1h-4zM13 15h4v1h-4zM18 15h4v1h-4zM23 15h3v1h-3zM31 15h1v1h-1zM5 16h3v1h-3zM10 16h1v1h-1zM19 16h1v1h-1zM23 16h6v1h-6zM30 16h1v1h-1zM32 16h1v1h-1zM36 16h1v1h-1zM5 17h5v1h-5zM12 17h2v1h-2zM19 17h2v1h-2zM25 17h3v1h-3zM30 17h3v1h-3zM6 18h1v1h-1zM8 18h1v1h-1zM10 18h2v1h-2zM13 18h1v1h-1zM15 18h1v1h-1zM21 18h1v1h-1zM26 18h3v1h-3zM32 18h1v1h-1zM34 18h1v1h-1zM8 19h2v1h-2zM12 19h1v1h-1zM15 19h1v1h-1zM17 19h3v1h-3zM21 19h1v1h-1zM23 19h3v1h-3zM27 19h3v1h-3zM31 19h1v1h-1zM33 19h3v1h-3zM4 20h2v1h-2zM9 20h3v1h-3zM14 20h1v1h-1zM18 20h1v1h-1zM20 20h3v1h-3zM24 20h1v1h-1zM28 20h1v1h-1zM30 20h2v1h-2zM34 20h3v1h-3zM4 21h1v1h-1zM6 21h1v1h-1zM9 21h1v1h-1zM13 21h1v1h-1zM15 21h3v1h-3zM22 21h5v1h-5zM30 21h2v1h-2zM33 21h1v1h-1zM4 22h4v1h-4zM9 22h4v1h-4zM14 22h3v1h-3zM19 22h1v1h-1zM22 22h1v1h-1zM24 22h1v1h-1zM26 22h5v1h-5zM32 22h1v1h-1zM34 22h1v1h-1zM8 23h2v1h-2zM11 23h1v1h-1zM13 23h1v1h-1zM15 23h1v1h-1zM17 23h2v1h-2zM21 23h2v1h-2zM24 23h1v1h-1zM27 23h1v1h-1zM29 23h3v1h-3zM33 23h1v1h-1zM36 23h1v1h-1zM7 24h6v1h-6zM14 24h3v1h-3zM18 24h1v1h-1zM20 24h3v1h-3zM24 24h1v1h-1zM27 24h1v1h-1zM29 24h1v1h-1zM33 24h3v1h-3zM5 25h1v1h-1zM9 25h1v1h-1zM15 25h9v1h-9zM25 25h1v1h-1zM29 25h3v1h-3zM33 25h1v1h-1zM35 25h1v1h-1zM4 26h3v1h-3zM9 26h2v1h-2zM13 26h1v1h-1zM15 26h1v1h-1zM19 26h1v1h-1zM21 26h1v1h-1zM23 26h14v1h-14zM5 27h2v1h-2zM8 27h1v1h-1zM11 27h2v1h-2zM14 27h1v1h-1zM16 27h1v1h-1zM18 27h1v1h-1zM20 27h1v1h-1zM28 27h2v1h-2zM33 27h1v1h-1zM36 27h1v1h-1zM4 28h1v1h-1zM8 28h6v1h-6zM18 28h3v1h-3zM24 28h3v1h-3zM28 28h5v1h-5zM34 28h3v1h-3zM12 29h1v1h-1zM15 29h1v1h-1zM18 29h1v1h-1zM23 29h3v1h-3zM27 29h2v1h-2zM32 29h4v1h-4zM4 30h7v1h-7zM14 30h1v1h-1zM16 30h1v1h-1zM19 30h2v1h-2zM25 30h1v1h-1zM28 30h1v1h-1zM30 30h1v1h-1zM32 30h2v1h-2zM35 30h1v1h-1zM4 31h1v1h-1zM10 31h1v1h-1zM12 31h4v1h-4zM20 31h1v1h-1zM23 31h1v1h-1zM25 31h1v1h-1zM27 31h2v1h-2zM32 31h2v1h-2zM35 31h2v1h-2zM4 32h1v1h-1zM6 32h3v1h-3zM10 32h1v1h-1zM13 32h1v1h-1zM16 32h5v1h-5zM27 32h7v1h-7zM36 32h1v1h-1zM4 33h1v1h-1zM6 33h3v1h-3zM10 33h1v1h-1zM12 33h2v1h-2zM15 33h2v1h-2zM19 33h1v1h-1zM23 33h2v1h-2zM26 33h1v1h-1zM29 33h2v1h-2zM34 33h3v1h-3zM4 34h1v1h-1zM6 34h3v1h-3zM10 34h1v1h-1zM13 34h2v1h-2zM16 34h2v1h-2zM21 34h1v1h-1zM23 34h1v1h-1zM26 34h1v1h-1zM28 34h1v1h-1zM30 34h2v1h-2zM34 34h1v1h-1zM36 34h1v1h-1zM4 35h1v1h-1zM10 35h1v1h-1zM15 35h2v1h-2zM19 35h4v1h-4zM25 35h4v1h-4zM31 35h2v1h-2zM34 35h2v1h-2zM4 36h7v1h-7zM12 36h1v1h-1zM17 36h2v1h-2zM22 36h1v1h-1zM24 36h1v1h-1zM26 36h1v1h-1zM30 36h5v1h-5z" fill="#000"/></svg>